<svg width="235" height="59" viewBox="0 0 235 59" fill="none" xmlns="http://www.w3.org/2000/svg">
<path d="M15.6051 15.6325V33.6836L0 42.7091L9.00972 58.3416H45.0486L54.0583 42.7091L69.6634 51.7346L85.2685 42.7091L76.2588 27.0766H58.2394V9.02553L42.6343 0L33.6245 15.6325H15.6051Z" fill="white"/>
<path d="M106.285 54.977L100.316 3.3645H107.058L109.726 41.003L112.956 17.8301H118.855L122.085 41.003L124.753 3.3645H131.495L125.526 54.977H119.627L115.905 28.3632L112.184 54.977H106.285Z" fill="white"/>
<path d="M138.236 54.977V3.3645H164.358V9.54396H145.258V25.0628H160.355V31.2423H145.258V48.7976H164.358V54.977H138.236Z" fill="white"/>
<path d="M182.616 54.977V33.7702L171.17 3.3645H178.683L186.127 24.8522L193.57 3.3645H201.084L189.638 33.7702V54.977H182.616Z" fill="white"/>
<path d="M210.002 54.977V3.3645H217.024V48.7976H235.001V54.977H210.002Z" fill="white"/>
</svg>
