<svg xmlns="http://www.w3.org/2000/svg" viewBox="0 0 800 1100" style="font-family: 'SF Mono', 'Fira Code', 'JetBrains Mono', monospace;">
  <defs>
    <linearGradient id="bgGrad" x1="0%" y1="0%" x2="100%" y2="100%">
      <stop offset="0%" style="stop-color:#090b0e"/>
      <stop offset="100%" style="stop-color:#0d1117"/>
    </linearGradient>
    <filter id="glow" x="-50%" y="-50%" width="200%" height="200%">
      <feGaussianBlur stdDeviation="4" result="coloredBlur"/>
      <feMerge>
        <feMergeNode in="coloredBlur"/>
        <feMergeNode in="SourceGraphic"/>
      </feMerge>
    </filter>
    <filter id="softGlow" x="-20%" y="-20%" width="140%" height="140%">
      <feGaussianBlur stdDeviation="2" result="blur"/>
      <feMerge>
        <feMergeNode in="blur"/>
        <feMergeNode in="SourceGraphic"/>
      </feMerge>
    </filter>
    <filter id="glitch">
      <feOffset in="SourceGraphic" dx="2" dy="0" result="r"/>
      <feOffset in="SourceGraphic" dx="-2" dy="0" result="b"/>
      <feColorMatrix in="r" type="matrix" values="1 0 0 0 0  0 0 0 0 0  0 0 0 0 0  0 0 0 1 0" result="red"/>
      <feColorMatrix in="b" type="matrix" values="0 0 0 0 0  0 0 0 0 0  0 0 1 0 0  0 0 0 1 0" result="blue"/>
      <feBlend in="red" in2="blue" mode="screen" result="blend"/>
      <feBlend in="blend" in2="SourceGraphic" mode="screen"/>
    </filter>
    <pattern id="grid" width="40" height="40" patternUnits="userSpaceOnUse">
      <path d="M 40 0 L 0 0 0 40" fill="none" stroke="#21262d" stroke-width="0.5"/>
    </pattern>
    <symbol id="monotile" viewBox="0 0 96.006653 65.823639">
      <path d="m 18.003326,18.003326 v 20 l -17.3203124,10 10.0000004,17.320312 h 40 l 10,-17.320312 17.320312,10 17.32031,-10 -9.999998,-17.320312 h -20 v -20 L 48.003326,0.6830136 l -10,17.3203124 z"/>
    </symbol>
  </defs>
  
  <!-- Background -->
  <rect width="800" height="1100" fill="url(#bgGrad)"/>
  <rect width="800" height="1100" fill="url(#grid)" opacity="0.4"/>
  
  <!-- Glitch lines -->
  <g opacity="0.1">
    <rect x="0" y="200" width="800" height="2" fill="#ff7b72"/>
    <rect x="0" y="450" width="800" height="1" fill="#76b900"/>
    <rect x="0" y="700" width="800" height="3" fill="#ff7b72"/>
  </g>
  
  <!-- Corner marks -->
  <path d="M 25 25 L 25 10 L 40 10" stroke="#ff7b72" stroke-width="2" fill="none"/>
  <path d="M 775 25 L 775 10 L 760 10" stroke="#ff7b72" stroke-width="2" fill="none"/>
  <path d="M 25 1075 L 25 1090 L 40 1090" stroke="#ff7b72" stroke-width="2" fill="none"/>
  <path d="M 775 1075 L 775 1090 L 760 1090" stroke="#ff7b72" stroke-width="2" fill="none"/>
  
  <!-- Header with monotile -->
  <g transform="translate(50, 28)">
    <use href="#monotile" x="0" y="0" width="48" height="33" 
         style="fill: rgba(255, 123, 114, 0.15); stroke: #ff7b72; stroke-width: 2;" filter="url(#softGlow)"/>
    <text x="58" y="25" fill="#ff7b72" font-size="14" font-weight="600" letter-spacing="4">CERTIFICATE OF PARTICIPATION</text>
  </g>
  <text x="750" y="53" fill="#30363d" font-size="11" text-anchor="end">005</text>
  
  <!-- Certificate content -->
  <text x="400" y="120" fill="#484f58" font-size="14" text-anchor="middle" font-style="italic">This document hereby certifies that</text>
  
  <text x="400" y="170" fill="#6e7681" font-size="28" font-weight="600" text-anchor="middle" letter-spacing="2">THE UNITED STATES OF AMERICA</text>
  <line x1="150" y1="185" x2="650" y2="185" stroke="#21262d" stroke-width="1"/>
  
  <text x="400" y="230" fill="#484f58" font-size="14" text-anchor="middle" font-style="italic">has successfully completed the program entitled</text>
  
  <!-- Main title block -->
  <rect x="80" y="260" width="640" height="220" rx="4" fill="#161b22" stroke="#ff7b72" stroke-width="2"/>
  
  <text x="400" y="320" fill="#6e7681" font-size="24" font-weight="300" text-anchor="middle" letter-spacing="4">I BURNED</text>
  <text x="400" y="390" fill="#ff7b72" font-size="48" font-weight="800" text-anchor="middle" letter-spacing="2" filter="url(#glitch)">AMERICA'S LAST</text>
  <text x="400" y="460" fill="#76b900" font-size="64" font-weight="900" text-anchor="middle" filter="url(#glow)">TRILLION</text>
  
  <text x="400" y="530" fill="#484f58" font-size="18" text-anchor="middle" font-style="italic">and all I got was this crappy</text>
  
  <!-- GPU illustration -->
  <g transform="translate(400, 700)">
    <rect x="-180" y="-100" width="360" height="180" rx="8" fill="#161b22" stroke="#76b900" stroke-width="3"/>
    
    <!-- NVIDIA header -->
    <rect x="-165" y="-85" width="100" height="50" fill="#76b900" rx="4"/>
    <text x="-115" y="-55" fill="#0d1117" font-size="18" font-weight="900" text-anchor="middle">H100</text>
    
    <!-- Die -->
    <rect x="-50" y="-85" width="70" height="70" fill="#0d1117" stroke="#30363d" stroke-width="1"/>
    <text x="-15" y="-45" fill="#30363d" font-size="10" text-anchor="middle">80GB</text>
    <text x="-15" y="-30" fill="#30363d" font-size="8" text-anchor="middle">HBM3</text>
    
    <!-- Fan -->
    <circle cx="100" cy="-50" r="45" fill="#0d1117" stroke="#30363d" stroke-width="2"/>
    <circle cx="100" cy="-50" r="30" fill="#161b22"/>
    <circle cx="100" cy="-50" r="8" fill="#76b900"/>
    
    <!-- Heat sink -->
    <g stroke="#30363d" stroke-width="2">
      <line x1="-165" y1="0" x2="165" y2="0"/>
      <line x1="-165" y1="15" x2="165" y2="15"/>
      <line x1="-165" y1="30" x2="165" y2="30"/>
      <line x1="-165" y1="45" x2="165" y2="45"/>
    </g>
    
    <!-- PCIe -->
    <rect x="-150" y="60" width="300" height="15" fill="#76b900"/>
    
    <!-- CRAPPY stamp with monotile -->
    <g transform="rotate(-12)">
      <rect x="-100" y="-45" width="200" height="70" rx="4" fill="none" stroke="#ff7b72" stroke-width="4"/>
      <text x="0" y="5" fill="#ff7b72" font-size="42" font-weight="900" text-anchor="middle" filter="url(#glow)">CRAPPY</text>
    </g>
  </g>
  
  <!-- HOPPER CARD -->
  <text x="400" y="850" fill="#76b900" font-size="42" font-weight="800" text-anchor="middle" letter-spacing="6">HOPPER CARD</text>
  
  <!-- Fine print -->
  <text x="400" y="910" fill="#30363d" font-size="10" text-anchor="middle">* Blackwell shipping whenever. CUDA compatibility not guaranteed.</text>
  <text x="400" y="928" fill="#30363d" font-size="10" text-anchor="middle">** TDP ratings are suggestions. See NVFP4 for what you could have had.</text>
  
  <!-- Signatures -->
  <g transform="translate(200, 970)">
    <line x1="0" y1="0" x2="150" y2="0" stroke="#30363d" stroke-width="1"/>
    <text x="75" y="20" fill="#30363d" font-size="10" text-anchor="middle">J. Huang, CEO</text>
  </g>
  <g transform="translate(450, 970)">
    <line x1="0" y1="0" x2="150" y2="0" stroke="#30363d" stroke-width="1"/>
    <text x="75" y="20" fill="#30363d" font-size="10" text-anchor="middle">Date: 2024-∞</text>
  </g>
  
  <!-- Footer metrics -->
  <rect x="50" y="1010" width="700" height="55" rx="4" fill="#161b22" stroke="#21262d" stroke-width="1"/>
  <g transform="translate(70, 1022)">
    <use href="#monotile" x="0" y="0" width="36" height="24.7" 
         style="fill: rgba(84, 174, 255, 0.1); stroke: #54aeff; stroke-width: 1.5;"/>
  </g>
  <g transform="translate(400, 1045)">
    <text x="-250" y="0" fill="#30363d" font-size="9" text-anchor="middle">BURNED</text>
    <text x="-250" y="12" fill="#ff7b72" font-size="12" font-weight="700" text-anchor="middle">$1T</text>
    
    <text x="-100" y="0" fill="#30363d" font-size="9" text-anchor="middle">ROI</text>
    <text x="-100" y="12" fill="#ff7b72" font-size="12" font-weight="700" text-anchor="middle">LOL</text>
    
    <text x="50" y="0" fill="#30363d" font-size="9" text-anchor="middle">ALTERNATIVE</text>
    <text x="50" y="12" fill="#54aeff" font-size="12" font-weight="700" text-anchor="middle">NVFP4</text>
    
    <text x="200" y="0" fill="#30363d" font-size="9" text-anchor="middle">SPEEDUP</text>
    <text x="200" y="12" fill="#54aeff" font-size="12" font-weight="700" text-anchor="middle">12.5×</text>
  </g>
  
  <text x="750" y="1085" fill="#21262d" font-size="9" text-anchor="end">2025-11-26</text>
</svg>
