<svg width="235" height="59" viewBox="0 0 235 59" fill="none" xmlns="http://www.w3.org/2000/svg">
<path d="M15.6051 15.6325V33.6836L0 42.7091L9.00972 58.3416H45.0486L54.0583 42.7091L69.6634 51.7346L85.2685 42.7091L76.2588 27.0766H58.2394V9.02553L42.6343 0L33.6245 15.6325H15.6051Z" fill="#54AEFF"/>
<path d="M106.285 54.9773L100.316 3.36475H107.058L109.726 41.0033L112.956 17.8303H118.855L122.085 41.0033L124.753 3.36475H131.495L125.526 54.9773H119.627L115.905 28.3635L112.184 54.9773H106.285Z" fill="white"/>
<path d="M138.236 54.9773V3.36475H164.358V9.54421H145.258V25.0631H160.355V31.2425H145.258V48.7978H164.358V54.9773H138.236Z" fill="white"/>
<path d="M182.616 54.9773V33.7705L171.17 3.36475H178.683L186.127 24.8524L193.57 3.36475H201.084L189.638 33.7705V54.9773H182.616Z" fill="white"/>
<path d="M210.002 54.9773V3.36475H217.024V48.7978H235.001V54.9773H210.002Z" fill="white"/>
</svg>
